<svg width="21" height="20" viewBox="0 0 21 20" fill="none" xmlns="http://www.w3.org/2000/svg">
<g clip-path="url(#clip0_288_4894)">
<path d="M20.3335 10C20.3335 4.47715 15.8563 0 10.3335 0C4.81064 0 0.333496 4.47715 0.333496 10C0.333496 14.9912 3.99033 19.1283 8.771 19.8785V12.8906H6.23193V10H8.771V7.79688C8.771 5.29063 10.264 3.90625 12.5481 3.90625C13.6419 3.90625 14.7866 4.10156 14.7866 4.10156V6.5625H13.5257C12.2835 6.5625 11.896 7.3334 11.896 8.125V10H14.6694L14.2261 12.8906H11.896V19.8785C16.6767 19.1283 20.3335 14.9912 20.3335 10Z" fill="white"/>
</g>
<defs>
<clipPath id="clip0_288_4894">
<rect width="20" height="20" fill="white" transform="translate(0.333496)"/>
</clipPath>
</defs>
</svg>
