<svg width="21" height="20" viewBox="0 0 21 20" fill="none" xmlns="http://www.w3.org/2000/svg">
<g clip-path="url(#clip0_288_4900)">
<path d="M18.853 0H1.81006C0.993652 0 0.333496 0.644531 0.333496 1.44141V18.5547C0.333496 19.3516 0.993652 20 1.81006 20H18.853C19.6694 20 20.3335 19.3516 20.3335 18.5586V1.44141C20.3335 0.644531 19.6694 0 18.853 0ZM6.26709 17.043H3.29834V7.49609H6.26709V17.043ZM4.78271 6.19531C3.82959 6.19531 3.06006 5.42578 3.06006 4.47656C3.06006 3.52734 3.82959 2.75781 4.78271 2.75781C5.73193 2.75781 6.50146 3.52734 6.50146 4.47656C6.50146 5.42188 5.73193 6.19531 4.78271 6.19531ZM17.3765 17.043H14.4116V12.4023C14.4116 11.2969 14.3921 9.87109 12.8687 9.87109C11.3257 9.87109 11.0913 11.0781 11.0913 12.3242V17.043H8.13037V7.49609H10.9741V8.80078H11.0132C11.4077 8.05078 12.3765 7.25781 13.8179 7.25781C16.8218 7.25781 17.3765 9.23438 17.3765 11.8047V17.043Z" fill="white"/>
</g>
<defs>
<clipPath id="clip0_288_4900">
<rect width="20" height="20" fill="white" transform="translate(0.333496)"/>
</clipPath>
</defs>
</svg>
