<svg width="21" height="20" viewBox="0 0 21 20" fill="none" xmlns="http://www.w3.org/2000/svg">
<g clip-path="url(#clip0_288_4897)">
<path d="M6.62529 18.125C14.1706 18.125 18.2987 11.8723 18.2987 6.45155C18.2987 6.27577 18.2948 6.09608 18.287 5.9203C19.0901 5.33955 19.7831 4.62021 20.3335 3.79608C19.5856 4.12883 18.7915 4.34615 17.9784 4.44061C18.8346 3.92742 19.4756 3.12123 19.7827 2.17147C18.9773 2.6488 18.0965 2.98551 17.178 3.16718C16.5592 2.50963 15.741 2.07426 14.8499 1.92838C13.9588 1.78249 13.0445 1.93421 12.2483 2.36008C11.4521 2.78595 10.8183 3.46225 10.445 4.28443C10.0717 5.1066 9.97969 6.02885 10.1831 6.90858C8.55224 6.82674 6.95678 6.40309 5.50015 5.66508C4.04352 4.92708 2.75824 3.8912 1.72764 2.6246C1.20383 3.5277 1.04354 4.59637 1.27936 5.61341C1.51517 6.63045 2.12938 7.51954 2.99717 8.09999C2.34569 8.0793 1.70848 7.9039 1.13818 7.58827V7.63905C1.1376 8.58679 1.46524 9.50549 2.06542 10.239C2.6656 10.9725 3.50127 11.4755 4.43037 11.6625C3.82688 11.8276 3.19348 11.8517 2.5792 11.7328C2.84138 12.5479 3.35147 13.2607 4.03831 13.7719C4.72514 14.2831 5.55443 14.5672 6.41045 14.5844C4.95718 15.7259 3.16197 16.3451 1.31396 16.3422C0.986235 16.3417 0.658829 16.3216 0.333496 16.282C2.21088 17.4865 4.39477 18.1262 6.62529 18.125Z" fill="white"/>
</g>
<defs>
<clipPath id="clip0_288_4897">
<rect width="20" height="20" fill="white" transform="translate(0.333496)"/>
</clipPath>
</defs>
</svg>
